<svg xmlns="http://www.w3.org/2000/svg" xmlns:xlink="http://www.w3.org/1999/xlink" width="840" zoomAndPan="magnify" viewBox="0 0 630 629.999998" height="840" preserveAspectRatio="xMidYMid meet" version="1.0"><defs><g/><clipPath id="e349f2f197"><path d="M 247 275 L 496 275 L 496 462 L 247 462 Z M 247 275 " clip-rule="nonzero"/></clipPath><clipPath id="fb7029b3a9"><path d="M 224.152344 288.488281 L 485.902344 259.769531 L 507.09375 452.90625 L 245.34375 481.625 Z M 224.152344 288.488281 " clip-rule="nonzero"/></clipPath><clipPath id="091bdd6c91"><path d="M 224.152344 288.488281 L 485.902344 259.769531 L 507.09375 452.90625 L 245.34375 481.625 Z M 224.152344 288.488281 " clip-rule="nonzero"/></clipPath><clipPath id="d2811f5c99"><path d="M 145 173 L 392 173 L 392 356 L 145 356 Z M 145 173 " clip-rule="nonzero"/></clipPath><clipPath id="ae026002e8"><path d="M 166.648438 148.339844 L 422.816406 209.285156 L 377.847656 398.304688 L 121.675781 337.355469 Z M 166.648438 148.339844 " clip-rule="nonzero"/></clipPath><clipPath id="b4e3b0ea1c"><path d="M 424.023438 209.574219 L 167.851562 148.625 L 122.882812 337.644531 L 379.050781 398.589844 Z M 424.023438 209.574219 " clip-rule="nonzero"/></clipPath><clipPath id="329ae44220"><path d="M 398.0625 225.851562 L 438.964844 225.851562 L 438.964844 266.757812 L 398.0625 266.757812 Z M 398.0625 225.851562 " clip-rule="nonzero"/></clipPath><clipPath id="aa0f33d72c"><path d="M 443.03125 252.636719 L 463.484375 252.636719 L 463.484375 273.085938 L 443.03125 273.085938 Z M 443.03125 252.636719 " clip-rule="nonzero"/></clipPath><clipPath id="902af149cd"><path d="M 220.378906 337.160156 L 240.832031 337.160156 L 240.832031 357.609375 L 220.378906 357.609375 Z M 220.378906 337.160156 " clip-rule="nonzero"/></clipPath></defs><g clip-path="url(#e349f2f197)"><g clip-path="url(#fb7029b3a9)"><g clip-path="url(#091bdd6c91)"><path fill="#79bdd4" d="M 430.644531 461.144531 C 429.085938 457.691406 428.574219 453.394531 427.367188 449.742188 C 426.414062 446.738281 425.214844 443.832031 423.773438 441.03125 C 421.578125 436.910156 418.507812 433.257812 414.054688 431.542969 C 404.992188 428.042969 393.664062 431.578125 384.777344 433.910156 C 357.355469 441.113281 326.195312 448.160156 297.894531 440.523438 C 241.96875 425.425781 229.953125 341.871094 274.640625 307.742188 C 310.929688 280.027344 357.320312 273.957031 401.710938 275.1875 C 424.386719 275.8125 449.605469 278.042969 468.496094 291.929688 C 491.179688 308.609375 495.789062 338.640625 495.144531 364.902344 C 494.484375 391.660156 475.242188 409.660156 450.664062 417.644531 C 447.082031 418.804688 447.503906 424.148438 447.023438 427.140625 C 445.183594 438.578125 442.953125 456.027344 430.691406 461.25 Z M 430.644531 461.144531 " fill-opacity="1" fill-rule="nonzero"/></g></g></g><g clip-path="url(#d2811f5c99)"><g clip-path="url(#ae026002e8)"><g clip-path="url(#b4e3b0ea1c)"><path fill="#f5b327" d="M 197.71875 355.296875 C 199.695312 352.0625 200.734375 347.863281 202.386719 344.386719 C 203.703125 341.523438 205.253906 338.792969 207.03125 336.191406 C 209.722656 332.375 213.222656 329.128906 217.851562 327.980469 C 227.277344 325.628906 238.078125 330.542969 246.609375 333.960938 C 272.925781 344.507812 302.972656 355.363281 332.003906 351.292969 C 389.367188 343.242188 411.648438 261.824219 371.539062 222.417969 C 338.964844 190.417969 293.6875 178.640625 249.484375 174.359375 C 226.90625 172.171875 201.605469 171.257812 181.140625 182.695312 C 156.5625 196.433594 148.261719 225.660156 145.648438 251.800781 C 142.984375 278.433594 159.851562 298.679688 183.25 309.648438 C 186.65625 311.246094 185.574219 316.496094 185.683594 319.527344 C 186.089844 331.101562 186.140625 348.691406 197.660156 355.394531 Z M 197.71875 355.296875 " fill-opacity="1" fill-rule="nonzero"/></g></g></g><g clip-path="url(#329ae44220)"><path fill="#ffffff" d="M 417.851562 225.859375 C 416.152344 225.917969 413.644531 226.484375 411.691406 227.277344 C 408.488281 228.582031 405.402344 231.066406 403.351562 233.992188 C 402.445312 235.289062 401.222656 237.316406 400.769531 238.277344 C 399.609375 240.746094 398.714844 244.257812 398.371094 247.679688 C 398.0625 250.746094 398.898438 254.832031 400.425781 257.726562 C 402.273438 261.230469 403.871094 262.6875 407.402344 264.085938 C 409.753906 265.019531 413.953125 265.964844 416.78125 266.199219 C 418.210938 266.320312 418.558594 266.320312 420.117188 266.199219 C 421.789062 266.074219 423.132812 265.816406 424.859375 265.292969 C 428.171875 264.292969 430.269531 263.113281 432.527344 260.988281 C 433.917969 259.679688 435.304688 257.75 436.269531 255.78125 C 436.996094 254.296875 437.949219 251.507812 438.316406 249.777344 C 438.566406 248.59375 438.597656 248.21875 438.601562 246.230469 C 438.605469 244.285156 438.578125 243.859375 438.359375 242.839844 C 437.835938 240.371094 436.890625 237.992188 435.769531 236.320312 C 434.800781 234.875 433.121094 232.6875 432.363281 231.886719 C 430.5625 229.992188 427.40625 227.964844 425.070312 227.199219 C 423.800781 226.785156 419.660156 225.941406 418.527344 225.867188 C 418.320312 225.855469 418.09375 225.851562 417.851562 225.859375 Z M 417.851562 225.859375 " fill-opacity="1" fill-rule="nonzero"/></g><g clip-path="url(#aa0f33d72c)"><path fill="#ffffff" d="M 453.210938 252.640625 C 452.335938 252.667969 451.046875 252.960938 450.042969 253.367188 C 448.394531 254.039062 446.804688 255.316406 445.753906 256.820312 C 445.285156 257.488281 444.65625 258.53125 444.425781 259.023438 C 443.828125 260.292969 443.367188 262.101562 443.191406 263.859375 C 443.035156 265.4375 443.464844 267.539062 444.246094 269.027344 C 445.199219 270.832031 446.019531 271.578125 447.835938 272.300781 C 449.046875 272.78125 451.207031 273.265625 452.660156 273.386719 C 453.394531 273.449219 453.574219 273.449219 454.375 273.386719 C 455.234375 273.320312 455.925781 273.1875 456.816406 272.921875 C 458.519531 272.40625 459.597656 271.800781 460.757812 270.707031 C 461.472656 270.035156 462.1875 269.039062 462.683594 268.027344 C 463.058594 267.265625 463.546875 265.828125 463.734375 264.941406 C 463.863281 264.332031 463.878906 264.140625 463.882812 263.117188 C 463.886719 262.113281 463.871094 261.894531 463.757812 261.371094 C 463.488281 260.101562 463 258.878906 462.425781 258.019531 C 461.925781 257.273438 461.0625 256.148438 460.671875 255.738281 C 459.746094 254.765625 458.125 253.722656 456.921875 253.328125 C 456.269531 253.113281 454.140625 252.679688 453.558594 252.644531 C 453.453125 252.636719 453.335938 252.636719 453.210938 252.640625 Z M 453.210938 252.640625 " fill-opacity="1" fill-rule="nonzero"/></g><g clip-path="url(#902af149cd)"><path fill="#ffffff" d="M 230.246094 337.164062 C 229.398438 337.191406 228.148438 337.472656 227.175781 337.871094 C 225.578125 338.519531 224.039062 339.757812 223.015625 341.214844 C 222.5625 341.863281 221.953125 342.875 221.730469 343.351562 C 221.152344 344.582031 220.703125 346.335938 220.535156 348.039062 C 220.378906 349.570312 220.796875 351.605469 221.558594 353.050781 C 222.476562 354.796875 223.273438 355.519531 225.035156 356.21875 C 226.207031 356.683594 228.300781 357.15625 229.710938 357.273438 C 230.421875 357.332031 230.597656 357.332031 231.375 357.273438 C 232.207031 357.210938 232.878906 357.082031 233.738281 356.820312 C 235.390625 356.324219 236.4375 355.734375 237.5625 354.675781 C 238.253906 354.023438 238.945312 353.058594 239.425781 352.078125 C 239.789062 351.339844 240.261719 349.949219 240.445312 349.085938 C 240.570312 348.496094 240.585938 348.308594 240.589844 347.316406 C 240.589844 346.347656 240.578125 346.136719 240.46875 345.628906 C 240.207031 344.398438 239.734375 343.210938 239.175781 342.378906 C 238.695312 341.65625 237.855469 340.566406 237.476562 340.167969 C 236.582031 339.222656 235.007812 338.210938 233.84375 337.832031 C 233.210938 337.625 231.144531 337.203125 230.582031 337.167969 C 230.480469 337.160156 230.367188 337.160156 230.246094 337.164062 Z M 230.246094 337.164062 " fill-opacity="1" fill-rule="nonzero"/></g><g fill="#ffffff" fill-opacity="1"><g transform="translate(157.74714, 261.946014)"><g><path d="M 71.214844 20.332031 C 79.179688 20.007812 79.851562 13.207031 82.023438 5.921875 C 86.144531 -8.433594 91.03125 -25.269531 86.195312 -39.585938 C 80.835938 -54.359375 62.980469 -53.308594 53.480469 -42.761719 C 51.378906 -49.328125 47.5625 -56.066406 40.019531 -57.851562 C 31.972656 -59.738281 23.480469 -56.359375 18.375 -50.628906 C 10.191406 -41.394531 7.925781 -28.859375 6.929688 -17.828125 C 6.3125 -11.71875 5.304688 -4.109375 6.914062 2.273438 C 8.542969 8.570312 15.710938 10.453125 21.820312 10.195312 C 31.777344 9.128906 29.832031 -8.644531 30.472656 -17.46875 C 30.765625 -21.972656 30.949219 -31.152344 33.992188 -34.929688 C 36.648438 -37.640625 37.367188 -34.6875 37.96875 -31.582031 C 39.34375 -24.457031 31.59375 -1.265625 49.667969 -2.535156 C 55.457031 -2.949219 57.09375 -12.363281 58.601562 -17.238281 C 59.179688 -19.226562 62.625 -31.085938 64.960938 -25.699219 C 66.457031 -22.234375 63.230469 -10.160156 61.890625 -5.6875 C 60.382812 -0.375 56.570312 7.195312 57.792969 12.882812 C 59.101562 19.03125 66.1875 20.457031 71.214844 20.332031 Z M 71.214844 20.332031 "/></g></g></g><g fill="#ffffff" fill-opacity="1"><g transform="translate(236.67409, 270.808111)"><g><path d="M 16.394531 11.039062 C 27.953125 26.28125 49.027344 22.996094 60.503906 9.914062 C 71.597656 -2.789062 76.816406 -23.496094 65.753906 -37.808594 C 39.609375 -70.308594 -4.847656 -17.042969 16.394531 11.039062 Z M 32.976562 -10.9375 C 35.019531 -17.425781 40.003906 -25.898438 46.753906 -28.355469 C 54.894531 -31.261719 56.132812 -20.980469 54.710938 -15.523438 C 53.167969 -9.070312 48.613281 -1.25 42.167969 1.363281 C 33.253906 4.84375 30.929688 -4.0625 32.976562 -10.9375 Z M 32.976562 -10.9375 "/></g></g></g><g fill="#ffffff" fill-opacity="1"><g transform="translate(295.42761, 292.894206)"><g><path d="M 7.519531 10.335938 C 12.160156 13.882812 18.210938 15.066406 21.816406 12.191406 C 26 8.941406 28.808594 1.601562 31.253906 -3.894531 C 32.476562 -6.644531 32.675781 -7.21875 34.660156 -6.199219 C 40.992188 -2.9375 40.820312 -4.667969 37.914062 0.980469 C 35.597656 5.484375 30.625 13.640625 31.566406 18.757812 C 32.253906 22.105469 36.335938 24.300781 39.617188 25.988281 C 44.042969 28.269531 48.300781 28.816406 51.507812 23.710938 C 56.238281 16.394531 59.917969 6.996094 64.457031 -0.515625 C 67.238281 -5.164062 70.132812 -9.851562 73.066406 -14.425781 C 76.820312 -20.40625 82.132812 -25.105469 78.234375 -29.71875 C 73.839844 -34.875 64.527344 -39.285156 60.375 -35.53125 C 57.890625 -33.335938 54.160156 -26.085938 51.460938 -21.777344 C 49.390625 -18.5 48.917969 -17.585938 46.964844 -18.105469 C 45.78125 -18.429688 43.53125 -19.683594 41.621094 -20.664062 C 38.835938 -22.003906 41.160156 -23.894531 45.964844 -34.164062 C 47.027344 -36.417969 48.394531 -38.511719 49.070312 -40.578125 C 49.953125 -43.792969 48.910156 -46.453125 47.011719 -48.394531 C 43.785156 -51.503906 36.875 -54.769531 32.875 -53.933594 C 30.140625 -53.3125 27.902344 -48.769531 24.910156 -42.585938 C 21.765625 -36.289062 19.078125 -29.566406 15.972656 -23.34375 C 7.691406 -7.816406 4.273438 -0.988281 3.195312 2.417969 C 2.238281 5.398438 3.980469 7.648438 7.519531 10.335938 Z M 7.519531 10.335938 "/></g></g></g></svg>